<svg viewBox="0 0 300 220" xmlns="http://www.w3.org/2000/svg">
  <rect width="300" height="220" rx="14" fill="#F3F7F2"/>
  <ellipse cx="150" cy="185" rx="90" ry="10" fill="#E3ECE1"/>
  <!-- baby bottle -->
  <g transform="translate(95 55)">
    <rect x="10" y="0" width="26" height="16" rx="4" fill="#FFE082"/>
    <path d="M8 16 h30 v18 q10 6 10 18 v50 a10 10 0 0 1 -10 10 h-30 a10 10 0 0 1 -10 -10 v-50 q0 -12 10 -18z" fill="#FFFFFF" stroke="#D8E2D6" stroke-width="2"/>
    <rect x="6" y="60" width="42" height="8" fill="#8BC34A" opacity="0.6"/>
    <rect x="6" y="76" width="42" height="6" fill="#8BC34A" opacity="0.4"/>
  </g>
  <!-- rubber duck -->
  <g transform="translate(180 140)">
    <ellipse cx="20" cy="20" rx="24" ry="18" fill="#FFCA28"/>
    <circle cx="42" cy="6" r="13" fill="#FFCA28"/>
    <path d="M52 4 q10 0 10 5 q-10 3 -12 -1z" fill="#FB8C00"/>
    <circle cx="46" cy="3" r="2" fill="#12194D"/>
  </g>
</svg>
