<svg viewBox="0 0 300 220" xmlns="http://www.w3.org/2000/svg">
  <rect width="300" height="220" rx="14" fill="#F3F7F2"/>
  <ellipse cx="150" cy="185" rx="90" ry="10" fill="#E3ECE1"/>
  <!-- pump bottle -->
  <rect x="95" y="80" width="46" height="95" rx="10" fill="#FFFFFF" stroke="#D8E2D6" stroke-width="2"/>
  <rect x="108" y="60" width="20" height="24" rx="4" fill="#1F7A3D"/>
  <rect x="103" y="52" width="30" height="10" rx="4" fill="#8BC34A"/>
  <rect x="95" y="130" width="46" height="10" fill="#8BC34A" opacity="0.5"/>
  <!-- tube -->
  <path d="M165 100 h40 a10 10 0 0 1 10 10 v55 a10 10 0 0 1 -10 10 h-40 a10 10 0 0 1 -6 -18 l4 -49 a10 10 0 0 1 2 -8z" fill="#FFFFFF" stroke="#D8E2D6" stroke-width="2"/>
  <path d="M165 100 h40 v10 h-40z" fill="#12194D" opacity="0.85"/>
  <!-- leaf accent -->
  <path d="M215 150c14-6 24-20 22-36-16 2-28 12-32 26-2 6-1 8 10 10z" fill="#8BC34A" opacity="0.7"/>
</svg>
