<svg viewBox="0 0 300 220" xmlns="http://www.w3.org/2000/svg">
  <rect width="300" height="220" rx="14" fill="#F3F7F2"/>
  <ellipse cx="150" cy="185" rx="90" ry="10" fill="#E3ECE1"/>
  <!-- scissors -->
  <g transform="translate(95 70) rotate(-10)">
    <circle cx="10" cy="70" r="14" fill="none" stroke="#9AA5A0" stroke-width="6"/>
    <circle cx="46" cy="70" r="14" fill="none" stroke="#9AA5A0" stroke-width="6"/>
    <path d="M14 60 L100 6" stroke="#C9D2CD" stroke-width="7" stroke-linecap="round"/>
    <path d="M42 60 L100 34" stroke="#C9D2CD" stroke-width="7" stroke-linecap="round"/>
  </g>
  <!-- face mask -->
  <g transform="translate(150 110)">
    <path d="M10 30 q60 -40 120 0 q4 30 -20 45 q-40 20 -80 0 q-24 -15 -20 -45z" fill="#FFFFFF" stroke="#D8E2D6" stroke-width="2"/>
    <path d="M20 32 q50 -26 100 0" fill="none" stroke="#1F7A3D" stroke-width="3"/>
    <path d="M14 45 q56 24 112 0" fill="none" stroke="#8BC34A" stroke-width="3" opacity="0.7"/>
    <path d="M8 32 q-18 6 -18 30" fill="none" stroke="#B9C4BE" stroke-width="3"/>
    <path d="M142 32 q18 6 18 30" fill="none" stroke="#B9C4BE" stroke-width="3"/>
  </g>
</svg>
